<?xml version="1.0" encoding="utf-8"?>
<!-- Generator: Adobe Illustrator 21.0.2, SVG Export Plug-In . SVG Version: 6.00 Build 0)  -->
<svg version="1.1" id="Layer_1" xmlns="http://www.w3.org/2000/svg" xmlns:xlink="http://www.w3.org/1999/xlink" x="0px" y="0px"
	 viewBox="0 0 500 750" style="enable-background:new 0 0 500 750;" xml:space="preserve">
<style type="text/css">
	.st0{fill:#FF0000;}
	.st1{fill:#FFFFFF;}
</style>
<g>
	<polygon class="st0" points="480.8,683.6 224.8,482.5 37.8,683.6 96,361.9 12,289.6 105.9,271.3 154.1,10.3 267.2,238.9 485,195.7
		334.5,360.3 	"/>
	<path class="st1" d="M138.4,204.8c-5-10-11.6-19.1-17.5-26.6c-5.8-7.5-5.8-13.3-9.1-25.8c-3.3-12.5-7.5-26.6-7.5-29.1
		c0-2.5,0-9.1-2.5-8.3c-2.5,0.8-5.8,5-5.8,7.5c0,2.5,3.3,12.5,2.5,14.1s-0.8,5.8-3.3,5.8s-20-8.3-24.1-10.8
		c-4.2-2.5-16.6-5.8-18.3-6.7c-1.7-0.8-3.3-0.8-4.2,0.8c-0.8,1.7,2.5,5.8,2.5,5.8s-5.8-3.3-8.3-3.3c-2.5,0-5,0.8-4.2,3.3
		c0.8,2.5,4.2,11.6,5.8,13.3c1.7,1.7,12.5,19.1,15,22.4c2.5,3.3,11.6,12.5,17.5,15c5.8,2.5,24.9,15,25.8,18.3s-5,16.6,5,20.8
		S138.4,204.8,138.4,204.8z"/>
	<path class="st1" d="M295.8,310.4c-7.4-13.3-11.4-29.1-12.3-32.4s0.8-10.8,0.8-10.8s-2.5-5.8-0.8-15s4.1-20.8,10.6-24.1
		c6.5-3.3,12.3-6.7,20.4-6.7s18.8,2.5,24.5,5.8s22.1,21.6,23.7,24.9c1.6,3.3,4.1,14.1,4.9,20c0.8,5.8-1.6,11.6-3.3,20
		s-22.1,10.8-28.6,15S295.8,310.4,295.8,310.4z"/>
	<path d="M335.1,226.4c4.5-2,7.2,0.6,10.1,2.4c13.2,8.4,19.5,21,21.6,36c0.1,1-0.8,2.2-1.9,3.2c0.3,1.9,0.6,3.7,0.8,5
		c-2.1,0-3.6-0.4-4.7,0.1c-3.3,1.4-3.3,4.1-1.5,7.3c-2.2-0.3-3.9-0.6-4.9-0.8c-0.7-2.8-1.3-5.4-1.8-7.5c3.2-1.9,7-4.1,11.4-6.7
		c-7.9-2.9-11.3,5-17.4,5.7c-3.8-3.2-1.7-7.6-2.2-11.5c-0.4-3-0.6-6.1-0.8-9.1c-0.2-3.1-0.5-6.3-0.2-9.4c0.5-4.4,0.2-8.2-4.1-10.7
		C338,229.4,336.8,228,335.1,226.4z"/>
	<path d="M303,247.4c3.6-1.5,7-2.7,10.1-4.2c4.3-2,7.6-0.6,10.8,2.1c-2.6,0.6-5.1,1.2-7.6,1.8c0,0.6,0.1,1.1,0.1,1.7
		c3.6,1,7.3,1.9,10.9,2.9c-3.9,2.5-9.9-1.2-11.9,5.3C308,256,303.7,252.6,303,247.4z"/>
	<path d="M298,250.5c-0.8,1.6-1.4,3.3-2.3,4.8c-2,3.4-3.9,6.8-6.1,10.1c-1,1.4-2.5,2.5-3.8,3.7c-0.9-1.4-2.3-2.6-2.7-4.1
		c-1.3-4.7,0.1-7.5,4.4-9.8c3.1-1.7,6.2-3.5,9.3-5.2C297.1,250.1,297.6,250.3,298,250.5z"/>
	<path d="M330.2,270.4c-3.1-5.6,2-6.4,3.8-8.6c2.7-3.1,5.3-0.5,8.4,1.7C338.1,265.9,334.3,268,330.2,270.4z"/>
	<path d="M330.7,273.7c1.2,0.1,2.4,0.1,4.7,0.3c-0.8,1.6-1.5,2.8-2.1,3.9c-1.2-1-2.5-2-3.7-2.9C330,274.6,330.3,274.2,330.7,273.7z"
		/>
	<path class="st1" d="M391,565.3c0.4-2.7,0.8-7,1.8-11.1c1-4.3,5.2-6.6,9.6-5.3c6,1.7,11,5.2,15.6,9.5c3.2,3,7.4,4.8,11,7.4
		c1.2,0.8,2.7,2.4,2.7,3.6c-0.1,1.7-1.1,3.9-2.5,4.7c-2.3,1.3-5.1,1.8-7.7,2.3c-1.4,0.3-3-0.4-4.5-0.3c-1.5,0.1-3.2,0.2-4.4,0.9
		c-2.6,1.6-4.9,1.8-7-0.7c-1.7-2.1-3.5-2.8-6.4-2C394.7,575.5,391,571.9,391,565.3z"/>
	<path class="st1" d="M320.5,316.3c12.2-2.3,23.1-8.5,35.5-5.2c1.1,0.3,2.1,0.7,3.1,1.1c-6,3-12.1,5.4-17.3,8.9
		c-4.6,3.1-8.3,7.6-12.6,11.2c-2.5,2.1-5.2,3.9-8.1,5.5c-0.8,0.4-2.8,0.1-3.1-0.5c-0.7-1.3-1.4-3.7-0.7-4.5
		C321.4,328,324,323.1,320.5,316.3z"/>
	<path class="st1" d="M93.3,178.2c-2.1,1-3.8,2.6-5.2,2.4c-4.4-0.7-8.8-2-13.1-3.3c-0.5-0.2-0.8-2.1-0.6-3.1
		c0.1-0.4,1.8-0.7,2.7-0.6c1.1,0.1,2.5,1.1,3.3,0.7c3.9-1.8,6.8,0.2,9.8,2.1C91,177,91.9,177.4,93.3,178.2z"/>
	<path class="st1" d="M299.9,321.8c2.4-1,4.1-1.7,6.7-2.8c-0.5,3.1-0.9,5.6-1.5,9.4C302.9,325.6,301.5,323.9,299.9,321.8z"/>
	<path d="M457.1,465.8c-1.5-15.4,1-31.5-6.6-46.1c-0.8-1.6-1-3.4-1.4-5.2c-2-9.8-4.3-19.5-5.8-29.4c-2-13.8-6.4-26.5-13.4-38.6
		c-3.2-5.6-5.8-10.7-13.4-9.7c-0.5,0.1-1.1-0.1-1.6-0.3c-12.1-4.7-24.8-5.4-37.6-5.5c-4.4,0-7.5-1.2-8.2-6.2c-0.2-1.2-1.3-2.4-2-3.5
		c-3.9-5.7-7.6-11.2-4.2-18.9c1.9-4.2,2.5-9,3.5-13.6c0.6-2.7,0.7-5.5,1-8.2c-0.4-0.2-0.7-0.3-1.1-0.5c-2.8,4.3-7.1,4.5-11.4,4.7
		c-2.4,0.1-4.2-0.7-3.8-3.6c0.4-3.1-1.1-4-3.9-4.4c-2.3-0.3-4.5-1.6-7.6-2.7c-2.1,2-6.3,4.3-7.7,7.8c-2,4.8-6.5,5.1-9.6,6.3
		c-3.2,1.2-6.5,2.2-9.6,3.7c-0.7,0.3-2.1,0.3-2.6-0.2c-0.5-0.5-0.6-1.8-0.3-2.6c0.6-1.5,1.9-2.8,2.5-4.3c0.3-0.9,0.1-2.2-0.5-3.1
		c-0.2-0.4-1.7-0.2-2.6,0c-3.6,0.9-7.1,1.9-10.7,2.8c-0.7,0.2-1.6-0.3-2.4-0.4c4-2.4,8-4.6,12.1-4.8c4.1-0.2,8.4,1.6,12.5,2.5
		c0.4-9-8.6-9.3-13.8-13.5c0.8-0.7,1.1-1,1.4-1.2c1.3-1.1,2.6-2.3,3.8-3.4c-1.1,0-2.2,0.1-3.3,0.1c-0.1,0-0.3-0.1-0.4-0.2
		c-3.9-3.1-8-1.6-12.2-1c-4.6,0.7-6.4,3.2-5,7.6c1,3.2-0.4,5.8-2.7,7.6c-1,0.8-3.2-0.1-5.2-0.2c0,0.5-0.1,1.4,0.2,2.3
		c1.5,5.3,2.9,10.7,4.8,15.8c2.8,7.5,5.8,14.9,9.2,22.1c2.1,4.4,0.9,8.8-3.9,9.8c-3.7,0.7-7.6,0.5-11.4,0.3
		c-3.4-0.2-6.8-0.8-10.2-1.4c-4-0.8-8.5-0.9-11.8-2.9c-5.9-3.7-11.3-5.1-17.9-2.2c-4.2,1.8-8.3-1-9.5-5.4c-0.4-1.4-0.9-3.1-1.9-4
		c-8-7.4-14.7-16.2-25-20.9c-1.9-0.9-4-2.3-5.1-4c-3.7-5.5-6.9-11.2-10.4-16.8c-2.6-4.2-5.1-8.4-7.9-12.5c-1.1-1.7-2.9-2.9-4.2-4.5
		c-5.8-7.5-12-14.8-17.3-22.7c-7.6-11.5-14.7-23.4-21.6-35.3c-2-3.5-3.8-4.1-6.5-2.9c0.4,2.7,1.8,5.6,0.9,7.1
		c-4.9,7.7-13.6,10-20.6,14.7c-0.3-0.4-0.6-0.8-0.9-1.1c2.7-2.5,5.4-4.9,8.2-7.6c-2.8-1.7-4.3-3.9-3.1-7.6c1.5-5,2.4-10.2-0.6-15.1
		c-2.6-4.3-2.8-10.1-8.3-12.7c3.5-3.2,2.6-6.8,1.6-10.4c-1.9-6.8-4-13.5-5.8-20.3c-1.1-4.1-0.1-8.7-3.1-12.4
		c-0.4-0.5-0.4-1.6-0.4-2.4c0.3-2.5,0.7-5,1.2-8.2c-3.8,2.2-5,5-4.5,8.4c0.5,3.4,1.4,6.8,2,10.2c0.8,4.2-0.5,7.6-4.6,8.4
		c-4.6,1-9.5,0.6-14.3,0.7c-0.4,0-0.8-0.7-1.1-1c-1.3-1.3-2.3-3.2-3.8-3.9c-7.6-3.7-15.4-7.1-23.3-10.7c-3.4,5.8-7.7,3.1-13.1,2.3
		c1.1,3.2,2.3,5.6,2.9,8.1c0.9,4.4,1.1,9,2.1,13.3c0.6,2.5,1.4,5.4,3.2,7c10.7,9.6,20.5,20.4,33.6,26.9c6.1,3,10.3,7.4,14,13
		c4.6,6.8,5.2,12.5-0.8,18.4c-3,2.9-2.5,5.5,0,8.6c6.4,8.1,13.1,16.1,16.9,26c2.4,6.3,5.1,12.5,8.2,18.5c4.3,8.4,9.2,16.4,13.6,24.7
		c4.7,9,10.1,17.4,17.3,24.6c6.9,6.9,13.8,13.9,20.4,21.1c7.2,7.8,14,15.9,21.2,23.8c3.7,4.1,7.6,8.1,11.9,11.5
		c5.5,4.4,5.7,4.2,2.2,10.3c-0.1,0.1-0.1,0.2-0.2,0.4c-7.4,14-14.8,28.1-22.4,42.1c-14.6,27-29.2,53.9-43.9,80.8
		c-5.9,10.8-11.9,21.5-17.8,32.4c-2,3.7-0.3,9.4,3.3,11.1c4,1.9,8,3.8,12.2,5.2c4.2,1.4,8.6,3.5,12.8,3.1c7.9-0.7,14.3,1.9,20.6,6
		c8.2,5.4,16.7,10.4,24.9,15.8c1.7,1.1,3.6,2.9,4.3,4.8c4.7,13.3,7.4,26.8,4.5,41.2c-1.5,7.4-2,15.1-2,22.7
		c0.1,12.4-0.8,84.4-0.5,96.8h179c0-0.1,1.2-39.8,1.2-39.9c2.8-22.9,3-65.9,1.3-88.9c-0.4-5.5,0.9-10.7,4.1-15.1
		c2.6-3.6,5.4-6.6,10.8-6c3,0.3,6.2-1.8,9.3-2.8c2.8-0.9,5.9-1.3,8.4-2.7c4.7-2.7,9-6.2,13.8-8.9c3.9-2.2,4.2-5.2,3.9-9.1
		c-0.2-2.8-0.1-5.9,1-8.3c3.2-7.3,5.5-14.7,6.7-22.6c1.6-10.7,4-21.2,6.1-31.8c3.1-15,6.3-30,9.4-45.1
		C457.2,467.2,457.2,466.5,457.1,465.8z M88.2,180.7c-4.4-0.7-8.8-2-13.1-3.3c-0.5-0.2-0.8-2.1-0.6-3.1c0.1-0.4,1.8-0.7,2.7-0.6
		c1.1,0.1,2.5,1.1,3.3,0.7c3.9-1.8,6.8,0.2,9.8,2.1c0.8,0.5,1.7,0.9,3.1,1.8C91.3,179.3,89.6,180.9,88.2,180.7z M305.1,328.4
		c-2.2-2.8-3.6-4.5-5.3-6.6c2.4-1,4.1-1.7,6.7-2.8C306.1,322.2,305.7,324.6,305.1,328.4z M341.8,321.1c-4.6,3.1-8.3,7.6-12.6,11.2
		c-2.5,2.1-5.2,3.9-8.1,5.5c-0.8,0.4-2.8,0.1-3.1-0.5c-0.7-1.3-1.4-3.7-0.7-4.5c4.1-4.8,6.7-9.7,3.2-16.5
		c12.2-2.3,23.1-8.5,35.5-5.2c1.1,0.3,2.1,0.7,3.1,1.1C353.1,315.2,347.1,317.6,341.8,321.1z M429.2,574c-2.3,1.3-5.1,1.8-7.7,2.3
		c-1.4,0.3-3-0.4-4.5-0.3c-1.5,0.1-3.2,0.2-4.4,0.9c-2.6,1.6-4.9,1.8-7-0.7c-1.7-2.1-3.5-2.8-6.4-2c-4.6,1.2-8.2-2.3-8.2-9
		c0.4-2.7,0.8-7,1.8-11.1c1-4.3,5.2-6.6,9.6-5.3c6,1.7,11,5.2,15.6,9.5c3.2,3,7.4,4.8,11,7.4c1.2,0.8,2.7,2.4,2.7,3.6
		C431.6,571,430.6,573.2,429.2,574z"/>
</g>
</svg>
