<?xml version="1.0" encoding="utf-8"?>
<!-- Generator: Adobe Illustrator 21.0.2, SVG Export Plug-In . SVG Version: 6.00 Build 0)  -->
<svg version="1.1" id="Layer_1" xmlns="http://www.w3.org/2000/svg" xmlns:xlink="http://www.w3.org/1999/xlink" x="0px" y="0px"
	 viewBox="0 0 200 75" style="enable-background:new 0 0 200 75;" xml:space="preserve">
<path d="M39.7,20.7c-1.3-0.9-1.9-1.2-2.4-1.5c-1.5-1.2-3-1.4-4.5-0.1c-0.3,0.3-0.7,1-0.6,1.2c0.8,1.6,2.3,1.5,3.8,1.5
	c1.8,0,4-0.1,3.9,2.6c-0.1,2.4-2.1,2.4-3.7,2.1c-3.1-0.5-3.7,1.2-3.6,3.7c0,0.7,0.1,1.3,0.1,2c-0.1,7.3,0.5,7.7,7,4.6
	c1,2.2,0.1,4.6,0.3,6.8c0.1,1.4-0.7,2-2.2,2c-3.4,0-6.6-0.9-10.1-0.1c-2.2,0.5-1.8-1.9-1.7-3.3c0.7-10,1.2-20-0.1-30.1
	c-0.1-0.6-0.2-1.8,0.1-1.9c3.9-1.7,8-0.7,12.1-0.9c2.8-0.2,2,2.4,1.9,4.2C40,15.5,39.9,17.6,39.7,20.7z"/>
<path d="M54.1,31.1c-0.7,3-0.1,6.4,0.2,9.9c0.1,1.5,2,3.5-0.1,4.3c-1.9,0.7-4.3,0.3-6.4-0.1c-1.2-0.2-0.7-1.5-0.4-2.5
	c1.9-7,0.5-14.1,0.7-21.2c0.1-1.5,0.1-3.6-2.3-1.4c-0.3,0.2-1.2,0.3-1.3,0.2c-1.7-2.9-0.5-6.1-0.8-9.1c-0.2-2.1,1.6-2.1,3.1-2
	c1.2,0.1,2.3,0.2,3.5,0.2c11.3-0.3,7.6-0.9,8.3,9.7c0.1,1.3-0.3,2.7-1.8,1.5c-3-2.4-2.7-0.3-2.7,1.7C54.1,24.9,54.1,27.8,54.1,31.1z
	"/>
<path d="M105.8,30.6c0.6,3.4-1.4,8.4,1.9,12.7c0.4,0.5,0.3,1.6-0.4,1.7c-2.4,0.1-5.1,0.5-7.3-0.2c-2.1-0.7-0.4-2.8-0.3-4.3
	c0.5-9.3,0.8-18.6-0.1-27.8c-0.1-0.8-0.8-2-0.5-2.3c3.1-2.8,6.9-0.5,10.3-1.4c1.8-0.5,2.6,1,2.6,2.7c0,2,0,4,0,6
	c0,0.8,0,1.9-0.5,2.3c-1.1,0.8-1.8-0.4-2.4-1c-2.5-2.3-3.3-1.4-3.3,1.5C105.9,23.4,105.8,26.4,105.8,30.6z"/>
<path d="M21,20.3c-0.4-3.7,3.1-8.5,0-10.7c-2.6-1.8-7.4-0.5-11.2-0.5c-0.3,0-0.7,0-1,0c-2.3-0.2-3.4,0.6-2.9,3.2
	C7.6,21.4,6.3,30.7,6.2,40c0,6.2,0.6,6.8,6.9,4.4c-2.6-7.9-0.3-16-1.2-24c-0.1-1.2,0-2.5,1.7-2.3c1.8,0.2,1.9,1.7,1.9,3
	c0,5.8-0.1,11.5-0.3,17.3c0,2.3-0.2,4.6-0.3,6.9c1.3,0,2.7-0.1,4,0.1c2.5,0.4,3.5-0.5,2.9-2.9C20.2,35.2,21.7,27.7,21,20.3z"/>
<path d="M170.9,35.9c0.4-6.3,0.2-12.6,0-18.9c-0.1-2.7,2.4-5.5,0.7-7.7c-2-2.5-5.3,0.2-8.4-0.6c-1.5,0.7-5.6-2.2-4.9,2.5
	c1.4,9.3-0.4,18.4-1.4,27.6c-0.3,2.5-2.6,4.7-2.1,7.5c0.2,0.9-0.3,2.2,1.1,2.4c0.8,0.1,1.4-0.4,2-1.1c3.3-4.2,8.1-4.4,12-0.6
	c0.8,0.8,1.4,2.3,2.7,1.5c1.2-0.6,0.5-2.1,0.8-3.1C174.5,41.6,170.7,39.4,170.9,35.9z M165.5,36.9c-0.1,1-0.2,2.2-1.5,2.1
	c-1.1-0.1-1.9-0.9-1.7-2c1.2-6.3,0.1-12.8,2.6-19C166,24.2,165.9,30.6,165.5,36.9z"/>
<path d="M151.1,41.2c-1.5-9.8-2.5-19.7-2.6-29.7c0-1.8-0.9-2.8-2.8-2.6c-1.5,0.1-3.1,0.4-4.5,0c-4.1-1.3-4.2,0.9-4.4,4.1
	c-0.6,9.4-0.5,18.9-2.3,28.3c-0.2,1.1-1.2,2.6,0,3c1.7,0.6,3.8,0.7,5.6,0.5c1.6-0.2,0.8-1.8,0.7-2.9c-0.1-1.3-0.3-3,1.6-2.9
	c1.5,0,2.7,1.4,2.3,2.7c-1.3,3.5,0.9,3,3.2,2.9C150.7,45.3,151.5,44,151.1,41.2z M142.4,33.6c-1.3-0.2-1.3-1.3-1.2-2.3
	c0.3-4,0.7-8.1,1-12.1c0.4,0,0.9,0.1,1.3,0.1c1.1,4.1,0.1,8.4,0.7,12.5C144.4,32.9,143.7,33.8,142.4,33.6z"/>
<path d="M94.9,14.7c0-3.2-2-6-5.4-6.1c-3.3-0.2-6.6,0.7-7.7,4.9c-1.1,4.4-0.5,8.9-0.9,13.3c0.4,4.6-0.7,9.1,0.6,13.5
	c0.9,3.1,2.7,5.7,6.7,5.3c3.7-0.4,5.4-2.4,6-6C95.7,31.3,94.8,23,94.9,14.7z M87.8,38c-1.5-6.1-1-12.1-0.5-18.5
	C89.7,21.4,90.1,33.2,87.8,38z"/>
<path d="M123.2,35.7c7-1.9,6.8-7.2,7.4-12c-0.3-4.2-0.3-8.1-2.5-11.4c-2-3.1-8.2-5.1-11.1-3.1c-2.4,1.6-0.8,4.4-0.7,6.8
	c0.1,7.6,0.6,15.3-0.1,22.8c-0.4,4.6-0.9,7.2,4.9,6.1c1-0.2,2.4,0.3,3.2-0.5c1.1-1.2-0.7-1.9-0.9-2.9
	C123,39.5,120.2,36.5,123.2,35.7z M121.6,24.7c0-1.9-0.3-5,1.7-5.1c2.6-0.1,1.4,3,1.8,4.7c-0.2,1.8,0.6,4.6-1.5,4.7
	C121.3,29.2,121.6,26.5,121.6,24.7z"/>
<path d="M76.5,16.9c-1.3-6.5-5.6-8.9-12.2-7.8c-1.6,0.3-1.9,0.6-1.8,2.5c0.3,5.4,0.1,10.9,0.1,16.4c0.1,0,0.1,0,0.2,0
	c0,4,0.3,8-0.1,11.9c-0.3,3.7-0.7,5.5,4.7,5.3c5-0.2,4.1-0.7,2.4-4c-1.2-2.2-3.6-5.6,2.2-6.1c2-0.1,3.2-2.3,4-4.1
	C78,26.4,77.5,21.6,76.5,16.9z M69.8,29.2c-1.6,0-1.3-2.3-1.5-3.7c0-0.2,0-0.3,0-0.5c0.2-1.9-0.8-5.1,1.5-5.1
	c2.9-0.1,0.5,3.7,2.6,4.8C71.2,26.5,71.8,29.2,69.8,29.2z"/>
<path d="M193.9,24.1c-1.3-1.2-2.9-1.1-2.9-1.1s-1.3,0-1.6,0.1c-1.8,0-2.4-0.4-2.3-1.7c0.1-1,0.4-2.1,1.6-2c0.8,0.1,1.1,0.3,1.9,1
	s1.9,1.3,2.6,1.4c-0.2-1-0.3-2.4-0.1-3.4c0.5-2.4,0.1-4.5-3.3-3.6c-1.6,0.4-2.3-0.5-2-1.9c0.6-2.6,0.2-3.7-2.8-3.5
	c-2.5,0.2-4.9,0-3.8,3.7c0.2,0.8,0,1.6-0.5,1.7c-6.9,0.5-2.3,4.9-3.2,8.6c1.9-1.4,2.9-2.8,3.6-2.6c1.4,0.3,0.9,1.9,0.8,3
	c-0.3,6.6,0.8,13.3-0.5,19.9c-0.3,1.7-0.1,2.6,2.2,2.7c11.5,0.6,12.6-0.3,12.5-11.8C196.1,33.9,196,26.9,193.9,24.1z M188.8,38.9
	c-2.6,0-1.5-2.5-1.5-3.9c0-1.8-0.7-4.7,1.9-4.7c1.9,0,1.7,2.7,1.7,4.5C190.9,36.5,191.4,39,188.8,38.9z"/>
<g>
	<rect x="4" y="60" width="65.5" height="6"/>
	<rect x="130.5" y="60" width="65.5" height="6"/>
</g>
<g>
	<path d="M87.5,67.1l-0.1,0.1l-0.3,0.2L87,67.6l-0.3,0.2L86.5,68l-0.3,0.2L86,68.2l-0.4,0.2l-0.2,0.1l-0.3,0.1l-0.3,0l-0.4,0.1
		L84,68.7l-0.3,0l-0.4,0h-0.8l-0.3,0l-0.3,0l-0.3,0l-0.3-0.1l-0.2-0.1l-0.7-0.2l-0.3-0.1L80,68.2L79.8,68l-0.2-0.1l-0.2-0.1
		l-0.2-0.1l-0.4-0.3l-0.2-0.2l-0.2-0.2l-0.2-0.2l-0.1-0.2L78,66.2L77.9,66l-0.2-0.3L77.5,65l-0.1-0.3l-0.2-0.5l0-0.2l0-0.4l0-0.2
		l0-0.2V63l0-0.5l0-0.2l0-0.2l0.1-0.3l0.1-0.2l0.1-0.2l0.1-0.2l0.1-0.3l0.1-0.2l0.1-0.2L78,60l0.1-0.2l0.1-0.2l0.2-0.2l0.2-0.2
		l0.2-0.2l0.2-0.2l0.2-0.2l0.2-0.2l0.5-0.3l0.2-0.1l0.2-0.1l0.5-0.2l0.3-0.1l0.2-0.1l0.5-0.1l0.3,0l0.3,0l0.5,0l0.3,0l0.2,0l0.3,0
		l0.6,0.1l0.2,0l0.4,0.1l0.5,0.2l0.2,0.1l0.3,0.2l0.2,0.1l0.4,0.3l0.5,0.3l0.2,0.1l0.1,0.1l0.1,0.1l0,0.1l0,0.1l-0.1,0.1l-0.1,0.2
		l-0.2,0.2l-0.2,0.2l-0.2,0.1l-0.2,0.2l-0.3,0.3L86,60.6l-0.1,0.1l-0.1,0.1l-0.1,0l-0.1,0l-0.1,0l-0.2-0.1L85,60.5l-0.2-0.1
		l-0.3-0.2l-0.2-0.1l-0.3-0.1l-0.2,0l-0.4,0h-0.2l-0.3,0l-0.2,0.1l-0.3,0.1l-0.2,0.1l-0.2,0.1l-0.3,0.2l-0.2,0.2l-0.1,0.1l-0.2,0.2
		l-0.1,0.2l-0.1,0.2l-0.1,0.2l-0.1,0.2L80.4,62l0,0.3l0,0.2l0,0.5v0.2l0,0.4l0,0.2l0.1,0.4l0.1,0.2l0.1,0.3l0.1,0.2l0.2,0.3l0.2,0.2
		l0.3,0.2l0.2,0.1l0.3,0.2l0.2,0.1l0.3,0.1l0.2,0l0.4,0h0.4l0.2,0l0.1,0l0.2-0.1l0.4-0.1l0.2-0.1l0.2-0.1l0.2-0.1l0.3-0.2l0.2-0.2
		l0.2-0.1l0.1,0l0.1,0l0.2,0.1l0.2,0.2l0.1,0.1l0.2,0.2l0.2,0.3l0.2,0.2l0.4,0.5l0.1,0.2l0.1,0.1L87.5,67.1L87.5,67.1z"/>
	<path d="M101,68.1l0,0.2l-0.1,0.2l-0.2,0.1l-0.2,0h-0.2l-0.4,0l-0.2,0h-0.7l-0.9,0.1L98,68.5l-0.1-0.1l-0.1-0.2l-0.5-1.3l-0.1-0.2
		l-0.1,0l-0.2,0L96,66.7h-0.2l-1.1,0l-0.9,0h-0.2l-0.2,0h-0.7l-0.2,0l-0.1,0.1l-0.1,0.2l-0.4,1l-0.1,0.2l-0.2,0.2l-0.2,0.1H91
		l-0.9,0h-0.2l-0.9,0.1l-0.2,0l-0.2-0.1l-0.1-0.2l0-0.2l0-0.1l0.1-0.2l0.2-0.5l0.1-0.2l0.4-0.9l0.1-0.2l0.4-0.9l0.1-0.2l0.4-0.8
		l0.1-0.2l0.4-0.9l0.1-0.2l0.5-1.3l0.4-0.9l0.1-0.2l0.3-0.7l0.1-0.2l0.3-0.7l0.1-0.2l0.3-0.6l0.1-0.2l0.2-0.1l0.2,0l0.7,0h1.2l0.7,0
		l0.3,0l0.2,0.1l0.1,0.2l0.2,0.6l0.1,0.2l0.4,0.7l0.1,0.2l0.3,0.7l0.1,0.2l0.3,0.8l0.1,0.2l0.3,0.7l0.1,0.2l0.3,0.7l0.1,0.2l0.3,0.8
		l0.1,0.2l0.5,0.9l0.4,0.7l0.1,0.2l0.4,1L101,68.1z M95.9,63.8l-0.1-0.2l-0.3-1l-0.1-0.2l-0.3-0.9l-0.1-0.2l-0.2-0.1l-0.2,0l-0.2,0
		l-0.2,0.2l-0.4,1l-0.1,0.2l-0.4,1l0,0.2l0,0.2l0.2,0.1l0.2,0h1l0.7,0l0.2-0.1l0.1-0.1L95.9,63.8z"/>
	<path d="M111.1,59.3l0,0.2l0,0.2l0,0.2l0,0.1l-0.1,0.1l-0.2,0h-0.3l-0.5-0.1l-0.2,0h-1l-1.7,0.1l-0.7,0H106l-0.2,0l-0.1,0.1l0,0.2
		l0,1.4l0,0.2l0,0.1l0.1,0.1l0.2,0h0.4l0.5,0l0.2,0l0.9,0h1.2l0.2,0l0.6,0h0.4l0.2,0l0.1,0.1l0.1,0.1l0,0.2l0,0.1l0,0.2l0,0.5v0.2
		l0,0.4l0,0.2l0,0.2l0,0.2l0,0.1l-0.1,0.1l-0.2,0h-0.4l-0.6-0.1l-0.2,0l-0.9,0h-0.2l-1.6,0l-0.2,0l-0.2,0l-0.2,0l-0.1,0.1v0.2l0,0.9
		v0.2l-0.1,0.9v0.2l0,0.3l0,0.2l0,0.3l0,0.2l0,0.1l-0.1,0l-0.2,0l-0.3,0l-0.2,0l-0.6,0h-0.2l-0.6,0l-0.5,0l-0.2,0l-0.1-0.1l0-0.1
		l0-0.2l0-0.8l0-0.2l0-0.8l0-0.2l0.1-0.8l0-0.2l0-0.8v-0.2l0-0.8v-0.2l0-0.8v-1.3l0-0.8v-1.3l0-0.8l0-0.2l0-0.1l0.1,0l0.2,0h0.3
		l0.6,0h0.2l0.9,0h0.2l0.9,0h0.2l0.9,0l0.2,0l0.9,0h0.2l0.9,0h0.2l0.4,0l0.2,0l0.3,0l0.2,0l0.1,0l0.1,0.1l0,0.2l0,0.1v0.2l0,0.5v0.2
		L111.1,59.3z"/>
	<path d="M121.8,67.1l0,0.2l-0.1,0.8l0,0.2l-0.1,0.1l-0.1,0.1l-2,0.1h-0.2l-0.8-0.1l-0.2,0l-0.8,0.1l-0.2,0h-1.1l-0.8-0.1h-0.2
		l-1.3,0.1l-0.5,0l-0.2,0l-0.1-0.1l0-0.1l0-0.2l0-0.4l0-0.2l0-0.2v-0.2l0.1-0.8v-0.2l0-0.8l0-0.2l0-0.8l0-0.2l0-0.8v-1.3L113,61
		l0-0.2l0-0.8l0-0.2v-0.4l0-0.5v-0.2l0-0.8l0-0.2l0-0.1l0.1-0.1l0.1,0l0.2,0l1,0.1l0.9,0h0.2l0.9,0.1h0.2l0.9-0.1h0.2l2.1,0l0.3,0
		l0.5,0h0.4l0.2,0l0.1,0.1l0,0.1l0,0.2v0.4l0,0.4v0.3l0,0.4l0,0.2l0,0.2l0,0.2l-0.1,0.1l-0.1,0.1l-0.2,0h-0.1l-0.2,0l-1.4,0h-0.2
		l-0.8,0h-0.2l-0.8,0l-0.7,0h-0.2l-0.1,0l-0.2,0l-0.1,0.1l0,0.1l0,0.2l0,0.4v0.2l0,0.3l0,0.2l0,0.1l0.1,0.1l0.2,0l0.5,0l0.5,0h1.4
		l1.7-0.1l0.5,0l0.2,0l0.1,0.1l0,0.1l0,0.2l0,0.3l0,0.3v0.5l0,0.4l0,0.5l0,0.2l-0.1,0.1l-0.1,0.1l-0.2,0h-0.3l-0.7-0.1l-0.2,0
		l-1.2,0.1l-1,0h-0.2l-0.6,0l-0.3,0l-0.2,0l-0.1,0l0,0.1l0,0.2l0,0.4l0,0.2v0.3l0,0.2l0,0.1l0.1,0.1l0.2,0l0.8,0h0.2l0.8-0.1
		l1.1,0.1h0.2l1.1-0.1h0.2l0.2,0l0.5,0.1l0.1,0l0.1,0.1l0,0.2L121.8,67.1z"/>
</g>
</svg>
