<?xml version="1.0" encoding="utf-8"?>
<!-- Generator: Adobe Illustrator 21.0.2, SVG Export Plug-In . SVG Version: 6.00 Build 0)  -->
<svg version="1.1" id="Layer_1" xmlns="http://www.w3.org/2000/svg" xmlns:xlink="http://www.w3.org/1999/xlink" x="0px" y="0px"
	 viewBox="0 0 200 20" style="enable-background:new 0 0 200 20;" xml:space="preserve">
<g>
	<rect x="4" y="7" width="65.5" height="6"/>
	<rect x="130.5" y="7" width="65.5" height="6"/>
</g>
<g>
	<path d="M87.8,14l0,0.2l0.1,0.5l0,0.2l0,0.1l0,0.2l-0.1,0.1l-0.1,0.1l-0.2,0l-0.2,0h-0.2l-0.6,0l-0.3,0h-0.4l-0.3,0L85,15.4l-0.1,0
		l-0.1-0.1l0-0.2l0-0.2l0-0.2l0-0.5v-1.4l0-1v-0.2l0.1-0.9V9.4l0-0.2l-0.1-0.1h-0.1l-0.1,0.1l-0.2,0.2l-0.6,0.7l-0.9,1.1l-0.6,0.8
		L82,12.2l-0.1,0h-0.1l-0.2,0l-0.2,0l-0.2-0.1l-0.8-0.9L80,10.4l-0.2-0.2L79,9.4l-0.2-0.2l-0.1,0l0,0.2l0,1v0.2l0.1,1v0.2l0,1V13
		l0,0.9v0.2l0,0.5l0,0.2l0,0.3l0,0.2l-0.1,0.1l-0.1,0l-0.4,0l-0.2,0l-0.6,0l-0.2,0l-0.7,0.1H76l-0.2,0l-0.1-0.1l0-0.1l0-0.2v-0.3
		l0-0.5v-2.3l0-0.8v-0.2l0-0.8l0-0.2l0-0.8V8.8l0-0.8l0-0.2l-0.1-0.8l0-0.2l0.1-0.8V5.6l-0.1-0.6V4.8l0-0.2l0.1-0.1l0.1-0.1l0.1,0
		l0.2,0l0.3,0l0.3,0.1H77l0.5,0l0.3,0l0.2,0l0.6,0h0.2l0.2,0.1L79,4.7l0.5,0.6l0.2,0.2l0.4,0.6l0.2,0.2l0.5,0.6l0.2,0.2l0.5,0.6
		l0.2,0.2l0.1,0.1h0.2L82,7.9l0.1-0.2l0.5-0.6l0.2-0.2l0.5-0.6l0.2-0.2l0.5-0.6l0.2-0.2l0.4-0.5l0.1-0.2l0.1-0.1l0.2-0.1l0.2,0
		l0.8,0l0.7,0h0.2l0.5,0l0.3,0l0.2,0l0.1,0l0.1,0.1l0,0.1l0,0.2l-0.1,0.7l0,0.2l0,0.8v0.2l0,0.8V8l0,0.8V9l0.1,0.8v0.2l-0.1,0.8v0.2
		l0,0.8v0.2L87.8,13v0.2L87.8,14z"/>
	<path d="M98.9,14l0,0.2l-0.1,0.8l0,0.2l-0.1,0.1l-0.1,0.1l-2,0.1h-0.2l-0.8-0.1l-0.2,0l-0.8,0.1l-0.2,0h-1l-0.8-0.1h-0.2L91,15.5
		l-0.5,0l-0.2,0l-0.1-0.1l0-0.1l0-0.2l0-0.3l0-0.2l0-0.2V14l0.1-0.8V13l0-0.8l0-0.2l0-0.8l0-0.2l0-0.8V8.8L90.1,8l0-0.2l0-0.8l0-0.2
		V6.3l0-0.5V5.6l0-0.8l0-0.2l0-0.1l0.1-0.1l0.1,0l0.2,0l1,0.1l0.9,0h0.2l0.9,0.1h0.2l0.9-0.1h0.2l2.1,0l0.3,0l0.5,0h0.4l0.2,0
		l0.1,0.1l0,0.1l0,0.2v0.4l0,0.4v0.3l0,0.4l0,0.2l0,0.2l0,0.2L98.5,7l-0.1,0.1l-0.2,0h-0.1l-0.2,0l-1.4,0h-0.2l-0.8,0h-0.2l-0.8,0
		l-0.7,0h-0.2l-0.1,0l-0.2,0l-0.1,0.1l0,0.1l0,0.2l0,0.4V8l0,0.3l0,0.2l0,0.1l0.1,0.1l0.2,0l0.5,0l0.5,0h1.4l1.7-0.1l0.5,0l0.2,0
		l0.1,0.1l0,0.1l0,0.2l0,0.3l0,0.3V10l0,0.3l0,0.5l0,0.2l-0.1,0.1l-0.1,0.1l-0.2,0h-0.3L97,11.1l-0.2,0l-1.2,0.1l-1,0h-0.2l-0.6,0
		l-0.3,0l-0.2,0l-0.1,0l0,0.1l0,0.2l0,0.4l0,0.2v0.3l0,0.2l0,0.1l0.1,0.1l0.2,0l0.8,0h0.2l0.8-0.1l1.1,0.1h0.2l1.1-0.1h0.2l0.2,0
		l0.5,0.1l0.1,0l0.1,0.1l0,0.2L98.9,14z"/>
	<path d="M111,6.8l0,0.2v2.2l0,0.9v0.2l0,2v0.3l0,0.1l0,0.3l0,0.7l0,0.9l0,0.2l-0.1,0.2l-0.1,0.2l-0.2,0.1l-0.1,0l-0.2,0l-0.8,0
		l-0.2,0l-0.4,0h-0.2l-0.2,0l-0.2-0.1l-0.2-0.1l-0.1-0.2l-0.2-0.4l-0.1-0.2l-0.6-0.7l-0.2-0.2l-0.6-0.7l-0.1-0.2l-0.5-0.8l-0.1-0.2
		l-0.6-0.7l-0.2-0.2l-0.6-0.7L104,9.8l-0.1,0l0,0.2l0,0.8V11l0,0.8V12l0,0.9v0.2l0,0.8l0,0.2l0.1,0.6l0,0.2l0,0.2l-0.1,0.1l-0.1,0
		l-0.2,0l-0.1,0l-0.3,0l-0.7,0h-0.2l-0.6,0h-0.2l-0.2,0l-0.2,0l-0.1-0.1l-0.1-0.1l0-0.2l0-0.1v-0.2l0-0.5l0-0.2l0-0.8V13l0-1.9
		l0-0.2l0-0.8l0-0.2v-1L100.7,8V7.7l0.1-0.8l0-0.2l-0.1-0.8l0-0.2V5.3l0-0.2l0-0.2l0-0.2l0-0.1l0.1,0l0.2,0l0.5,0l0.5,0h1.1l0.2,0
		l0.1,0.1l0.1,0.1l0.6,0.7l0.2,0.2l0.6,0.7l0.2,0.2l0.6,0.7l0.2,0.2l0.5,0.8l0.1,0.2l0.6,0.7l0.2,0.2l0.5,0.8l0.1,0.1l0.1,0L108,10
		V9.9l-0.1-0.6l0-0.2l0-0.7V8.1l-0.1-0.9V6.9l0.1-0.9l0-0.2l0-0.6V4.8l0-0.2l0.1-0.1l0.1-0.1l0.2,0h0.1l0.3,0l0.7,0h0.2l0.5,0l0.2,0
		l0.3,0l0.2,0l0.1,0l0.1,0.1l0,0.2l0,0.1l0,0.3l0,0.5l0,0.2L111,6.8z"/>
	<path d="M123.3,10.1l0,0.5l0,0.2l0,0.3l0,0.2l-0.1,0.4l0,0.2l-0.1,0.3l-0.1,0.2l-0.1,0.3l-0.1,0.2l-0.1,0.3l-0.1,0.2l-0.2,0.3
		l-0.2,0.2l-0.2,0.2l-0.2,0.2l-0.3,0.2l-0.2,0.1l-0.3,0.2l-0.2,0.1l-0.3,0.2l-0.2,0.1l-0.3,0.1l-0.2,0.1l-0.3,0.1l-0.2,0l-0.5,0
		h-0.7l-0.3,0l-0.2,0l-0.8-0.1l-0.2,0l-0.1,0l-0.2-0.1l-0.1,0l-0.2-0.1l-0.3-0.2l-0.2-0.1l-0.2-0.2l-0.4-0.3l-0.2-0.2l-0.2-0.3
		l-0.1-0.2l-0.2-0.4l-0.1-0.2l-0.1-0.2l-0.1-0.2l-0.1-0.2l-0.1-0.2l-0.1-0.2l-0.1-0.3l0-0.3l0-0.3l0-0.5l0-0.2l0-0.9V9.4l0-0.9V8.2
		l0-0.9V5.9l0-0.5V5.1l0-0.3l0-0.2l0.1-0.1l0.2,0l0.5,0l0.6,0h0.2l0.5,0l0.2,0l0.3,0l0.2,0l0.1,0.1l0,0.2l0,0.2v0.2l0,0.6v0.2l0,0.9
		v0.2l0,0.9v0.2l0,0.9v0.2l0,0.9l0,0.2l0,0.4l0,0.2l0.1,0.3l0.1,0.2l0.2,0.3l0.2,0.2l0.2,0.3l0.2,0.1l0.3,0.1l0.2,0.1l0.4,0h0.2
		l0.4-0.1l0.2-0.1l0.3-0.1l0.2-0.1l0.2-0.2l0.2-0.2L120,12l0.1-0.2l0.1-0.2l0-0.2l0.1-0.5l0-0.2l-0.1-0.9V9.4l0-0.9V8.2l0-0.9V7
		l0-0.9l0-0.2l0-0.6V4.8l0.1-0.2l0.1-0.1l0.2,0h0.3l0.8,0.1h0.2l0.6,0h0.2l0.2,0l0.2,0l0.1,0.1l0,0.2l0,0.5v0.2l0,0.3v0.2l0,0.9v0.2
		l0,0.9v0.2l-0.1,0.9L123.3,10.1z"/>
</g>
</svg>
