<?xml version="1.0" encoding="utf-8"?>
<!-- Generator: Adobe Illustrator 21.0.2, SVG Export Plug-In . SVG Version: 6.00 Build 0)  -->
<svg version="1.1" id="Layer_1" xmlns="http://www.w3.org/2000/svg" xmlns:xlink="http://www.w3.org/1999/xlink" x="0px" y="0px"
	 viewBox="0 0 100 15" style="enable-background:new 0 0 100 15;" xml:space="preserve">
<style type="text/css">
	.st0{fill:#FFFFFF;}
</style>
<g>
	<rect width="100" height="15"/>
</g>
<g>
	<path class="st0" d="M13.6,5L13.6,5l0,0.2l0,0.1l-0.1,0.2l0,0.1L13.3,6l-0.1,0.1L13,6.5l0,0.1L12.8,7l0,0.1l-0.1,0.4l0,0.1L12.5,8
		l0,0.1l-0.2,0.4l-0.1,0.1L12,9l0,0.1l-0.2,0.4l0,0.1L11.6,10l0,0.1l0,0l-0.1,0l-0.5,0l-0.1,0l-0.4,0l-0.1,0l-0.1,0L10.1,10l0-0.1
		L9.9,9.6l0-0.1L9.7,9.1l0-0.1L9.5,8.6l0-0.1L9.3,8.1l0-0.1L9.1,7.6l0-0.1L8.9,7.1l0-0.1L8.7,6.6l0-0.1L8.5,6.1l0-0.1L8.3,5.6l0-0.1
		L8.1,5.3l0-0.1l0-0.1l0-0.1l0-0.1l0,0l0.1,0l0,0h0.1l0.3,0l0.3,0l0.5,0l0.1,0l0.1,0l0,0.1l0,0.1l0,0.1l0.1,0.2l0,0.1L10,5.9L10,6
		l0.1,0.4l0,0.1L10.4,7l0,0.1l0.2,0.4l0.2,0.6l0,0.1l0.1,0l0.1,0l0-0.1l0.2-0.4l0-0.1l0.1-0.5l0-0.1l0.2-0.4l0-0.1L11.7,6l0-0.1
		l0.2-0.4l0-0.1L12,5.2L12,5L12.1,5l0,0l0.1,0h0.1l0.1,0l0.2,0H13l0.3,0l0.1,0l0.1,0L13.6,5L13.6,5z"/>
	<path class="st0" d="M15.7,8.9V9l0,0.4v0.1l0,0.4V10l0,0l-0.1,0l-0.1,0l-0.4,0h-0.4l-0.4,0l0,0l0,0V9.9l0-0.2V9.6l0-0.1V9.4l0-0.4
		l0-0.1l0-0.4l0-0.1l0-0.4V7.9l0-0.4V6.9l0-0.4V6.4l0-0.4V5.4l0-0.4l0-0.1l0,0l0.1,0h0.1l0.1,0l0.2,0h0.1l0.3,0h0.4l0.1,0l0,0l0,0.1
		l0,0.2l0,0.1V6l0,0.4v0.1l0,0.4V7l0,0.4v0.1l0,0.4v0.6L15.7,8.9z"/>
	<path class="st0" d="M21.1,8.5l0,0.1l0,0.1l0,0.1L21,9l0,0.1l-0.1,0.1l-0.1,0.1l-0.1,0.1l-0.1,0.1l-0.1,0.1l-0.1,0.1l-0.1,0.1
		l-0.1,0.1l-0.1,0.1L20.1,10L19.9,10l-0.2,0.1l-0.1,0l-0.2,0l-0.1,0l-0.2,0l-0.1,0l-0.2,0l-0.3,0h-0.2l-0.1,0l-0.2,0l-0.1,0l-0.1,0
		l-0.1,0l-0.2-0.1l-0.1,0l-0.1,0l-0.1-0.1l-0.1-0.1L17,9.7l-0.1-0.1l-0.1-0.1l-0.1-0.1l-0.1-0.1l-0.1-0.1l0-0.1l0-0.1l0,0l0.1-0.1
		l0.2-0.2l0.1-0.1l0.1-0.2l0.1-0.1l0.1-0.1l0.1,0l0.1,0l0.1,0.1l0.2,0.2l0.1,0.1l0.1,0L18,8.8l0.1,0l0.1,0l0.1,0l0.2,0l0.1,0l0.5,0
		l0.1,0l0.1,0l0.1,0l0.1-0.1l0.1-0.1l0-0.1l0-0.1l0-0.1l0-0.1l-0.1-0.1l0,0l-0.1-0.1l-0.1,0l-0.1,0l-0.1,0l-0.1,0L18.3,8l-0.2,0
		l-0.1,0l-0.2-0.1l-0.1,0l-0.1,0l-0.2-0.1l-0.1-0.1l-0.1-0.1l-0.1-0.1L17,7.4l-0.1-0.1l-0.1-0.1l0-0.1l-0.1-0.1l0-0.1l0-0.2l0-0.2
		l0-0.1l0-0.2l0-0.1l0-0.1l0-0.1l0.1-0.2l0-0.1L17,5.5l0.1-0.1l0.1-0.1l0.1-0.1l0.1-0.1l0.1-0.1L17.6,5L17.8,5l0.1,0l0.2,0l0.1,0
		l0.2,0l0.2,0l0.1,0l0.1,0h0.1l0.2,0l0.1,0l0,0l0.1,0l0.2,0l0.1,0l0.1,0L20,5l0.1,0l0.1,0.1l0.1,0l0.1,0.1l0.1,0.1l0.1,0.1l0.1,0.1
		v0.1l0,0.1l-0.1,0.1l-0.1,0.1l-0.3,0.4l-0.1,0.1l-0.1,0.1l-0.1,0l0,0l-0.1,0l-0.1-0.1l-0.1,0l-0.1,0l-0.1,0l-0.1,0l-0.1,0l-0.2,0
		l-0.1,0l-0.2,0h-0.2l-0.1,0l-0.1,0l-0.1,0l0,0l-0.1,0.1l0,0l0,0.1l0,0.1l0,0.1l0.1,0.1l0.1,0.1l0.1,0l0,0l0.1,0l0.2,0l0.2,0l0.1,0
		l0.2,0.1l0.2,0.1l0.2,0l0.1,0L20,7.1l0.1,0.1l0.1,0l0.1,0.1l0.1,0.1l0.2,0.2l0.1,0.1l0.1,0.1l0.1,0.1l0.1,0.1L21,8l0,0.1l0,0.2
		l0,0.1L21.1,8.5z"/>
	<path class="st0" d="M30,5L30,5l0,0.2l0,0.1l-0.1,0.2l0,0.1L29.6,6l-0.1,0.1l-0.2,0.4l0,0.1L29.2,7l0,0.1L29,7.5l0,0.1L28.8,8
		l0,0.1l-0.2,0.4l-0.1,0.1L28.3,9l0,0.1l-0.2,0.4l0,0.1L27.9,10l0,0.1l0,0l-0.1,0l-0.5,0l-0.1,0l-0.4,0l-0.1,0l-0.1,0L26.5,10l0-0.1
		l-0.2-0.4l0-0.1L26,9.1L26,9l-0.2-0.4l0-0.1l-0.1-0.4l0-0.1l-0.2-0.4l0-0.1l-0.2-0.4l0-0.1L25,6.6l0-0.1l-0.2-0.4l0-0.1l-0.1-0.4
		l0-0.1l-0.1-0.2l0-0.1l0-0.1l0-0.1l0-0.1l0,0l0.1,0l0,0h0.1l0.3,0l0.3,0l0.5,0l0.1,0L26,5L26,5l0,0.1l0,0.1l0.1,0.2l0,0.1l0.2,0.4
		l0,0.1l0.1,0.4l0,0.1L26.7,7l0,0.1l0.2,0.4l0.2,0.6l0,0.1l0.1,0l0.1,0l0-0.1l0.2-0.4l0-0.1l0.1-0.5l0-0.1l0.2-0.4l0-0.1L28,6l0-0.1
		l0.2-0.4l0-0.1l0.1-0.3l0-0.1L28.4,5l0.1,0l0.1,0h0.1l0.1,0l0.2,0h0.5l0.3,0l0.1,0l0.1,0L30,5L30,5z"/>
	<path class="st0" d="M34.7,9.4l0,0.1l0,0.4l0,0.1l0,0.1l0,0l-0.9,0h-0.1l-0.4,0l-0.1,0l-0.4,0l-0.1,0h-0.5l-0.4,0h-0.1l-0.6,0
		l-0.2,0l-0.1,0l0,0l0,0l0-0.1l0-0.2l0-0.1l0-0.1V9.4l0-0.4V8.9l0-0.4l0-0.1l0-0.4l0-0.1l0-0.4V6.9l0-0.4l0-0.1l0-0.4l0-0.1V5.8
		l0-0.2V5.5l0-0.4l0-0.1l0-0.1l0,0l0.1,0l0.1,0l0.5,0l0.4,0h0.1l0.4,0h0.1l0.4,0h0.1l1,0l0.1,0l0.2,0h0.2l0.1,0l0,0l0,0l0,0.1v0.2
		l0,0.2v0.1l0,0.2l0,0.1l0,0.1l0,0.1l0,0.1l0,0l-0.1,0h-0.1l-0.1,0l-0.7,0h-0.1l-0.4,0H33l-0.4,0l-0.3,0h-0.1l-0.1,0l-0.1,0l0,0l0,0
		l0,0.1l0,0.2v0.1l0,0.1l0,0.1l0,0l0,0l0.1,0l0.2,0l0.2,0h0.7l0.8,0l0.2,0l0.1,0l0,0l0,0l0,0.1l0,0.1l0,0.1v0.2l0,0.2l0,0.2l0,0.1
		l0,0.1l0,0l-0.1,0h-0.1l-0.3,0l-0.1,0l-0.6,0l-0.5,0h-0.1l-0.3,0l-0.1,0l-0.1,0l0,0l0,0l0,0.1l0,0.2l0,0.1v0.2l0,0.1l0,0l0,0l0.1,0
		l0.4,0h0.1l0.4,0l0.5,0h0.1l0.5,0h0.1l0.1,0l0.3,0l0,0l0,0l0,0.1L34.7,9.4z"/>
	<path class="st0" d="M40.3,7.1l0,0.1l0,0.5v0.7l0,0.3v0.4l0,0.1l0,0.1l-0.1,0.1l-0.1,0.1L40,9.6l-0.1,0.1l0,0l-0.1,0.1l0,0
		l-0.1,0.1l-0.1,0.1l-0.1,0l-0.1,0l-0.2,0l-0.1,0l-0.1,0l-0.1,0l-0.2,0l-0.1,0l-0.1,0l-0.3,0l-0.1,0l-0.2,0l-0.2,0l-0.1,0l-0.1,0
		l-0.1,0l-0.3-0.1L37,10l-0.1,0l-0.1,0l-0.1-0.1l-0.1-0.1l-0.1-0.1l-0.1-0.1l-0.1-0.1l-0.1-0.1l-0.1-0.1l-0.1-0.1l-0.1-0.1l-0.1-0.1
		l-0.1-0.1l-0.2-0.3l0-0.1l-0.1-0.1l0-0.1l0-0.1l0-0.1l0-0.1l0-0.1l0-0.2l0-0.1l0-0.1V7.5l0-0.3l0-0.1l0-0.1l0-0.1l0-0.1l0-0.1
		l0-0.1l0-0.1l0-0.1l0.1-0.1l0-0.1l0.1-0.1l0.1-0.1l0.1-0.1L36,5.7L36,5.6l0.2-0.2l0.1-0.1l0.1-0.1l0.1-0.1l0.2-0.1L36.8,5L37,5
		l0.1,0l0.1,0l0.3,0l0.2,0l0.1,0l0.1,0l0.2,0l0.1,0l0.2,0l0.1,0l0.2,0l0.1,0l0.2,0l0.1,0L39.1,5l0.1,0l0.3,0.1l0.1,0.1l0.1,0.1l0,0
		l0.1,0.1l0.1,0.1l0,0L40,5.5l0,0l0,0v0.1l0,0l0,0.1l-0.1,0.1l-0.1,0.1l-0.2,0.2l-0.1,0.1l-0.1,0.1l-0.1,0.1l-0.1,0l0,0l-0.1,0
		l-0.1,0L39,6.3L39,6.2l-0.1-0.1l-0.1,0l-0.1,0l-0.1,0l-0.1,0L38,6h0l-0.1,0l-0.2,0l-0.1,0l-0.2,0.1l-0.1,0.1l-0.1,0.1l-0.1,0.1
		L37,6.5L37,6.6l-0.1,0.1l0,0.1l0,0.1l0,0.1l0,0.2l0,0.1l0,0.1v0.1l0,0.2l0,0.1l0,0.2l0,0.1l0.1,0.2l0,0.1L37,8.5l0.1,0.1l0.1,0.1
		l0.1,0.1l0.1,0.1l0.1,0l0.2,0l0.1,0L38,9h0.1l0.1,0l0.1,0l0.4-0.1l0.1,0l0.1,0l0.1,0l0,0V8.6l0-0.1V8.4l0-0.2V8.1l0,0L39,8h-0.2
		l-0.1,0l-0.2,0l-0.1,0h-0.2l-0.1,0l-0.2,0l0,0l0,0l0-0.1l0-0.1l0-0.1l0-0.2l0-0.2l0-0.1V7.1l0-0.1l0,0l0.1,0l0.2,0l0.1,0h0.3l0.5,0
		l0.6,0h0.1l0.3,0l0.1,0l0.1,0l0.1,0l0.1,0l0,0L40.3,7.1L40.3,7.1z"/>
	<path class="st0" d="M45.3,9.4l0,0.1l0,0.4l0,0.1l0,0.1l0,0l-0.9,0h-0.1l-0.4,0l-0.1,0l-0.4,0l-0.1,0h-0.5l-0.4,0h-0.1l-0.6,0
		l-0.2,0l-0.1,0l0,0l0,0l0-0.1l0-0.2l0-0.1l0-0.1V9.4l0-0.4V8.9l0-0.4l0-0.1l0-0.4l0-0.1l0-0.4V6.9l0-0.4l0-0.1l0-0.4l0-0.1V5.8
		l0-0.2V5.5l0-0.4l0-0.1l0-0.1l0,0l0.1,0l0.1,0l0.5,0l0.4,0h0.1l0.4,0H43l0.4,0h0.1l1,0l0.1,0l0.2,0h0.2l0.1,0l0,0l0,0l0,0.1v0.2
		l0,0.2v0.1l0,0.2l0,0.1l0,0.1l0,0.1l0,0.1l0,0l-0.1,0H45l-0.1,0l-0.7,0h-0.1l-0.4,0h-0.1l-0.4,0l-0.3,0h-0.1l-0.1,0l-0.1,0l0,0l0,0
		l0,0.1l0,0.2v0.1l0,0.1l0,0.1l0,0l0,0l0.1,0l0.2,0l0.2,0h0.7l0.8,0l0.2,0l0.1,0l0,0l0,0l0,0.1l0,0.1l0,0.1v0.2l0,0.2l0,0.2l0,0.1
		L45,8l0,0l-0.1,0h-0.1l-0.3,0l-0.1,0l-0.6,0l-0.5,0h-0.1l-0.3,0l-0.1,0l-0.1,0l0,0l0,0l0,0.1l0,0.2l0,0.1v0.2l0,0.1l0,0l0,0l0.1,0
		l0.4,0h0.1l0.4,0l0.5,0h0.1l0.5,0h0.1l0.1,0l0.3,0l0,0l0,0l0,0.1L45.3,9.4z"/>
	<path class="st0" d="M50.3,5.5l0,0.1l0,0.2l0,0.1l0,0.1l0,0.1l0,0l0,0l-0.1,0H50l-0.2,0l-0.1,0l-0.3,0h-0.1l-0.2,0H49l0,0l-0.1,0
		l0,0l0,0.1l0,0.4v0.1l0,0.4l0,0.1l0,0.4l0,0.1l0,0.4V9l0,0.4l0,0.1l0,0.3l0,0.1l0,0.1l0,0l-0.1,0l-0.1,0l-0.2,0l-0.1,0l-0.3,0h-0.1
		l-0.3,0l-0.1,0l0,0l0-0.1V9.8l0-0.3l0-0.1V8.9l0-0.4V8.3l0-0.4V7.8l0-0.4l0-0.1V6.7l0-0.4V6.2l0-0.1l-0.1,0h-0.1l-0.2,0h-0.1
		l-0.2,0l-0.1,0l-0.1,0l-0.2,0H46l-0.1,0l-0.1,0l0,0l0,0l0-0.1v0l0-0.1l0-0.2V5.5l0-0.3l0-0.1l0-0.1l0,0l0,0l0.1,0h0.2l0.3,0h0.1
		l0.4,0h0.1l0.4,0h0.1l0.5,0l0.4,0h0.1l0.5,0h0.5l0.2,0l0.1,0l0.1,0l0.1,0l0,0l0,0l0,0.1v0.1l0,0.1L50.3,5.5z"/>
	<path class="st0" d="M55.6,9.9L55.6,9.9l0,0.2l-0.1,0l-0.1,0h-0.1l-0.2,0l-0.1,0h-0.3l-0.4,0l-0.1,0l0-0.1l0-0.1l-0.2-0.6l-0.1-0.1
		l-0.1,0l-0.1,0l-0.4,0h-0.1l-0.5,0l-0.4,0h-0.1l-0.1,0h-0.3l-0.1,0l-0.1,0l0,0.1l-0.2,0.5l0,0.1L51.2,10l-0.1,0l-0.1,0l-0.4,0h-0.1
		l-0.4,0l-0.1,0l-0.1,0L49.7,10l0-0.1l0-0.1l0-0.1l0.1-0.2l0-0.1L50.1,9l0-0.1l0.2-0.4l0-0.1L50.6,8l0-0.1l0.2-0.4l0-0.1l0.3-0.6
		l0.2-0.4l0-0.1l0.2-0.3l0-0.1l0.1-0.3l0-0.1l0.1-0.3l0-0.1L52,5l0.1,0l0.3,0H53l0.3,0l0.1,0L53.5,5l0,0.1l0.1,0.3l0,0.1l0.2,0.3
		l0,0.1L54,6.3l0,0.1l0.1,0.4l0,0.1l0.2,0.3l0,0.1l0.2,0.3l0,0.1l0.1,0.4l0,0.1l0.2,0.4L55.2,9l0,0.1l0.2,0.4L55.6,9.9z M53.2,7.9
		L53.2,7.9L53,7.3l0-0.1l-0.1-0.4l0-0.1l-0.1,0l-0.1,0l-0.1,0l-0.1,0.1l-0.2,0.5l0,0.1l-0.2,0.5l0,0.1l0,0.1l0.1,0l0.1,0h0.5l0.3,0
		l0.1,0L53.2,7.9L53.2,7.9z"/>
	<path class="st0" d="M61.2,10L61.2,10l-0.6,0l-0.4,0h-0.1l-0.3,0h-0.1l-0.1,0L59.5,10l-0.2-0.3l-0.1-0.1L59,9.3l-0.1-0.1l-0.2-0.3
		l-0.1-0.1l-0.2-0.3l0-0.1l0,0l-0.1,0l-0.2,0l-0.1,0l-0.1,0l0,0.1l0,0.4l0,0.1l0,0.4l0,0.1l0,0.2v0.1l0,0.1l0,0.1l0,0l-0.1,0h-0.1
		l-0.3,0l-0.3,0h-0.1l-0.3,0l-0.1,0l0,0l0-0.1l0-0.1l0-0.1l0-0.2l0-0.1l0-0.4V8.9l0-0.4l0-0.1l0-0.4V7.9l0-0.4V7.4l0-0.4V6.9l0-0.4
		V6.4l0-0.4V6l0-0.4V5.5l0-0.2l0-0.1l0,0l0-0.1l0-0.1l0.1,0l0.1,0l0.1,0l0.3,0l0.8,0l0.5,0h0.1l0.5,0h0.3l0.1,0l0.1,0l0.2,0l0.1,0
		l0.1,0l0.1,0l0.1,0.1l0.1,0.1l0.1,0.1l0.1,0.1l0.1,0.1l0.1,0.1l0.1,0.1l0.1,0.1l0.1,0.1L60.8,6l0,0.1l0,0.1l0,0.1l0,0.1l0,0.2v0.1
		l0,0.1l0,0.1l0,0.1l0,0.1l0,0.1l0,0.1l-0.1,0.1l-0.1,0.1l-0.1,0.1l-0.1,0.1l-0.1,0.1L60.3,8L60.2,8l-0.1,0L60,8.1l-0.1,0l-0.1,0
		l0,0.1l0.3,0.4l0.1,0.1L60.5,9l0.1,0.1l0.3,0.4l0.1,0.1l0.2,0.3l0.1,0.1L61.2,10L61.2,10z M59,7.3l0.2,0l0.1,0l0.1,0l0.1-0.1l0-0.1
		l0-0.1l0-0.1l0-0.1l0-0.1l0-0.1l0-0.1l-0.1-0.1l-0.1-0.1l-0.1,0l-0.2,0l-0.1,0l-0.4,0h-0.1l-0.4,0l-0.1,0l0,0l0,0l0,0.1l0,0.2
		l0,0.1l0,0.1l0,0.1l0,0.4l0,0.1l0,0l0,0l0.1,0l0.4,0h0.1L59,7.3z"/>
	<g>
		<path class="st0" d="M66.6,10L66.6,10l-0.6,0l-0.4,0h-0.1l-0.3,0h-0.1l-0.1,0L65,10l-0.2-0.3l-0.1-0.1l-0.2-0.3l-0.1-0.1l-0.2-0.3
			l-0.1-0.1l-0.2-0.3l0-0.1l0,0l-0.1,0l-0.2,0l-0.1,0l-0.1,0l0,0.1l0,0.4l0,0.1l0,0.4l0,0.1l0,0.2v0.1l0,0.1l0,0.1l0,0l-0.1,0h-0.1
			l-0.3,0l-0.3,0h-0.1L62,10l-0.1,0l0,0l0-0.1l0-0.1l0-0.1l0-0.2l0-0.1l0-0.4V8.9l0-0.4l0-0.1l0-0.4V7.9l0-0.4V7.4l0-0.4V6.9l0-0.4
			V6.4l0-0.4V5.9l0-0.4V5.4l0-0.2l0-0.1l0,0l0-0.1l0-0.1l0.1,0l0.1,0l0.1,0l0.3,0l0.8,0l0.5,0H64l0.5,0h0.3l0.1,0l0.1,0l0.2,0l0.1,0
			l0.1,0l0.1,0l0.1,0.1l0.1,0.1l0.1,0.1l0.1,0.1l0.1,0.1L66,5.5l0.1,0.1l0.1,0.1l0.1,0.1L66.3,6l0,0.1l0,0.1l0,0.1l0,0.1l0,0.2v0.1
			l0,0.1l0,0.1l0,0.1l0,0.1l0,0.1l0,0.1l-0.1,0.1l-0.1,0.1l-0.1,0.1L66,7.8l-0.1,0.1l-0.1,0.1L65.7,8l-0.1,0l-0.1,0.1l-0.1,0l-0.1,0
			l0,0.1l0.3,0.4l0.1,0.1L65.9,9L66,9.1l0.3,0.4l0.1,0.1l0.2,0.3l0.1,0.1L66.6,10L66.6,10z M64.5,7.3l0.2,0l0.1,0l0.1,0l0.1-0.1
			l0-0.1l0-0.1l0-0.1l0-0.1l0-0.1l0-0.1l0-0.1l-0.1-0.1l-0.1-0.1l-0.1,0l-0.2,0l-0.1,0L64,6h-0.1l-0.4,0l-0.1,0l0,0l0,0l0,0.1l0,0.2
			l0,0.1l0,0.1l0,0.1l0,0.4l0,0.1l0,0l0,0l0.1,0l0.4,0H64L64.5,7.3z"/>
		<path class="st0" d="M71.4,9.4l0,0.1l0,0.4l0,0.1l0,0.1l0,0l-0.9,0h-0.1l-0.4,0l-0.1,0l-0.4,0l-0.1,0h-0.5l-0.4,0h-0.1l-0.6,0
			l-0.2,0l-0.1,0l0,0l0,0l0-0.1l0-0.2l0-0.1l0-0.1V9.4l0-0.4V8.9l0-0.4l0-0.1l0-0.4l0-0.1l0-0.4V6.9l0-0.4l0-0.1l0-0.4l0-0.1V5.8
			l0-0.2V5.5l0-0.4l0-0.1l0-0.1l0,0l0.1,0l0.1,0l0.5,0l0.4,0h0.1l0.4,0h0.1l0.4,0h0.1l1,0l0.1,0l0.2,0h0.2l0.1,0l0,0l0,0l0,0.1v0.2
			l0,0.2v0.1l0,0.2l0,0.1l0,0.1l0,0.1l0,0.1l0,0l-0.1,0h-0.1l-0.1,0l-0.7,0h-0.1l-0.4,0h-0.1l-0.4,0l-0.3,0h-0.1l-0.1,0l-0.1,0l0,0
			l0,0l0,0.1l0,0.2v0.1l0,0.1l0,0.1l0,0l0,0l0.1,0l0.2,0l0.2,0H70l0.8,0l0.2,0l0.1,0l0,0l0,0l0,0.1l0,0.1l0,0.1v0.2l0,0.2l0,0.2
			l0,0.1l0,0.1l-0.1,0l-0.1,0h-0.1l-0.3,0l-0.1,0l-0.6,0l-0.5,0h-0.1L69,8l-0.1,0l-0.1,0l0,0l0,0l0,0.1l0,0.2l0,0.1v0.2l0,0.1l0,0
			l0,0l0.1,0l0.4,0h0.1l0.4,0l0.5,0h0.1l0.5,0H71l0.1,0l0.3,0l0,0l0,0l0,0.1L71.4,9.4z"/>
		<path class="st0" d="M76.4,5.5l0,0.1l0,0.2l0,0.1l0,0.1l0,0.1l0,0l0,0l-0.1,0h-0.1l-0.2,0l-0.1,0l-0.3,0h-0.1l-0.2,0H75l0,0
			l-0.1,0l0,0l0,0.1l0,0.4v0.1l0,0.4l0,0.1l0,0.4l0,0.1l0,0.4V9l0,0.4l0,0.1l0,0.3l0,0.1l0,0.1l0,0l-0.1,0l-0.1,0l-0.2,0l-0.1,0
			l-0.3,0h-0.1l-0.3,0l-0.1,0l0,0l0-0.1V9.8l0-0.3l0-0.1V8.9l0-0.4V8.3l0-0.4V7.8l0-0.4l0-0.1V6.7l0-0.4V6.2l0-0.1l-0.1,0h-0.1
			l-0.2,0h-0.1l-0.2,0l-0.1,0l-0.1,0l-0.2,0h-0.1l-0.1,0l-0.1,0l0,0l0,0l0-0.1v0l0-0.1l0-0.2V5.5l0-0.3l0-0.1l0-0.1l0,0l0,0l0.1,0
			h0.2l0.3,0h0.1l0.4,0h0.1l0.4,0h0.1l0.5,0l0.4,0h0.1l0.5,0h0.5l0.2,0l0.1,0l0.1,0l0.1,0l0,0l0,0l0,0.1v0.1l0,0.1L76.4,5.5z"/>
		<path class="st0" d="M81.4,5.5l0,0.1l0,0.2l0,0.1l0,0.1l0,0.1l0,0l0,0l-0.1,0h-0.1l-0.2,0l-0.1,0l-0.3,0h-0.1l-0.2,0h-0.1l0,0
			l-0.1,0l0,0l0,0.1l0,0.4v0.1l0,0.4l0,0.1l0,0.4l0,0.1l0,0.4V9l0,0.4l0,0.1l0,0.3l0,0.1l0,0.1l0,0l-0.1,0l-0.1,0l-0.2,0l-0.1,0
			l-0.3,0h-0.1l-0.3,0l-0.1,0l0,0l0-0.1V9.8l0-0.3l0-0.1V8.9l0-0.4V8.3l0-0.4V7.8l0-0.4l0-0.1V6.7l0-0.4V6.2l0-0.1l-0.1,0h-0.1
			l-0.2,0h-0.1l-0.2,0l-0.1,0l-0.1,0l-0.2,0h-0.1l-0.1,0l-0.1,0l0,0l0,0L77,6v0l0-0.1l0-0.2V5.5l0-0.3l0-0.1L77,5l0,0l0,0l0.1,0h0.2
			l0.3,0h0.1l0.4,0h0.1l0.4,0h0.1l0.5,0l0.4,0h0.1l0.5,0h0.5l0.2,0l0.1,0l0.1,0l0.1,0l0,0l0,0l0,0.1v0.1l0,0.1L81.4,5.5z"/>
		<path class="st0" d="M86.3,9.4l0,0.1l0,0.4l0,0.1l0,0.1l0,0l-0.9,0h-0.1l-0.4,0l-0.1,0l-0.4,0l-0.1,0h-0.5l-0.4,0h-0.1l-0.6,0
			l-0.2,0l-0.1,0l0,0l0,0l0-0.1l0-0.2l0-0.1l0-0.1V9.4l0-0.4V8.9l0-0.4l0-0.1l0-0.4l0-0.1l0-0.4V6.9l0-0.4l0-0.1l0-0.4l0-0.1V5.8
			l0-0.2V5.5l0-0.4l0-0.1l0-0.1l0,0l0.1,0l0.1,0l0.5,0l0.4,0h0.1l0.4,0H84l0.4,0h0.1l1,0l0.1,0l0.2,0H86l0.1,0l0,0l0,0l0,0.1v0.2
			l0,0.2v0.1l0,0.2l0,0.1l0,0.1l0,0.1l0,0.1l0,0l-0.1,0H86l-0.1,0l-0.7,0h-0.1l-0.4,0h-0.1l-0.4,0l-0.3,0h-0.1l-0.1,0l-0.1,0l0,0
			l0,0l0,0.1l0,0.2v0.1l0,0.1l0,0.1l0,0l0,0l0.1,0l0.2,0l0.2,0h0.7l0.8,0l0.2,0l0.1,0l0,0l0,0L86,7l0,0.1l0,0.1v0.2l0,0.2l0,0.2
			L86,8L86,8l-0.1,0l-0.1,0h-0.1l-0.3,0l-0.1,0l-0.6,0l-0.5,0h-0.1l-0.3,0l-0.1,0l-0.1,0l0,0l0,0l0,0.1l0,0.2l0,0.1v0.2l0,0.1l0,0
			l0,0l0.1,0l0.4,0h0.1l0.4,0l0.5,0h0.1l0.5,0h0.1l0.1,0l0.3,0l0,0l0,0l0,0.1L86.3,9.4z"/>
		<path class="st0" d="M91.9,10L91.9,10l-0.6,0l-0.4,0h-0.1l-0.3,0h-0.1l-0.1,0L90.3,10l-0.2-0.3L90,9.6l-0.2-0.3l-0.1-0.1l-0.2-0.3
			l-0.1-0.1l-0.2-0.3l0-0.1l0,0l-0.1,0l-0.2,0l-0.1,0l-0.1,0l0,0.1l0,0.4l0,0.1l0,0.4l0,0.1l0,0.2v0.1l0,0.1l0,0.1l0,0l-0.1,0h-0.1
			l-0.3,0l-0.3,0h-0.1l-0.3,0l-0.1,0l0,0l0-0.1l0-0.1l0-0.1l0-0.2l0-0.1l0-0.4V8.9l0-0.4l0-0.1l0-0.4V7.9l0-0.4V7.4l0-0.4V6.9l0-0.4
			V6.4l0-0.4V5.9l0-0.4V5.4l0-0.2l0-0.1l0,0l0-0.1l0-0.1l0.1,0l0.1,0l0.1,0l0.3,0l0.8,0l0.5,0h0.1l0.5,0H90l0.1,0l0.1,0l0.2,0l0.1,0
			l0.1,0l0.1,0l0.1,0.1l0.1,0.1l0.1,0.1l0.1,0.1l0.1,0.1l0.1,0.1l0.1,0.1l0.1,0.1l0.1,0.1L91.6,6l0,0.1l0,0.1l0,0.1l0,0.1l0,0.2v0.1
			l0,0.1l0,0.1l0,0.1l0,0.1l0,0.1l0,0.1l-0.1,0.1l-0.1,0.1l-0.1,0.1l-0.1,0.1l-0.1,0.1l-0.1,0.1L90.9,8l-0.1,0l-0.1,0.1l-0.1,0
			l-0.1,0l0,0.1l0.3,0.4L91,8.7L91.2,9l0.1,0.1l0.3,0.4l0.1,0.1l0.2,0.3l0.1,0.1L91.9,10L91.9,10z M89.8,7.3l0.2,0l0.1,0l0.1,0
			l0.1-0.1l0-0.1l0-0.1l0-0.1l0-0.1l0-0.1l0-0.1l0-0.1l-0.1-0.1L90,6.1l-0.1,0l-0.2,0l-0.1,0l-0.4,0h-0.1l-0.4,0l-0.1,0l0,0l0,0
			l0,0.1l0,0.2l0,0.1l0,0.1l0,0.1l0,0.4l0,0.1l0,0l0,0l0.1,0l0.4,0h0.1L89.8,7.3z"/>
	</g>
</g>
</svg>
